# xmcd
#
# Track frame offsets: 
#        150
#        27595
#        40423
#        68044
#        87861
#
# Disc length: 1425 seconds
#
# Revision: 0
# Processed by: cddbd v1.5.2PL0 Copyright (c) Steve Scherf et al.
# Submitted via: ExactAudioCopy v0.99pb5
#
DISCID=3c058f05
DTITLE=Justin Saladino Band - Sometimes Called The Blues
DYEAR=2012
DGENRE=Blues
TTITLE0=Hideaway - Rudemood
TTITLE1=Misery
TTITLE2=Goin' Down Slow
TTITLE3=Izabella
TTITLE4=Southbound
EXTD=
EXTT0=
EXTT1=
EXTT2=
EXTT3=
EXTT4=
PLAYORDER=
